<mxfile host="app.diagrams.net" modified="2020-11-18T07:34:08.795Z" agent="5.0 (Windows)" etag="puvEk2W0z10RqT3TfoWc" version="13.9.9" type="github" pages="2">
  <diagram id="AdPvxEJaIql4LJB7BbcC" name="Page-1">
    <mxGraphModel dx="1038" dy="547" grid="1" gridSize="10" guides="1" tooltips="1" connect="1" arrows="1" fold="1" page="1" pageScale="1" pageWidth="827" pageHeight="1169" math="0" shadow="0">
      <root>
        <mxCell id="0" />
        <mxCell id="1" parent="0" />
      </root>
    </mxGraphModel>
  </diagram>
  <diagram id="fzu3ddc3A_G5Vjfp3rww" name="Page-2">
    <mxGraphModel dx="1038" dy="547" grid="1" gridSize="10" guides="1" tooltips="1" connect="1" arrows="1" fold="1" page="1" pageScale="1" pageWidth="827" pageHeight="1169" math="0" shadow="0">
      <root>
        <mxCell id="bmY-C9wOTmy9lNj0Ndg1-0" />
        <mxCell id="bmY-C9wOTmy9lNj0Ndg1-1" parent="bmY-C9wOTmy9lNj0Ndg1-0" />
      </root>
    </mxGraphModel>
  </diagram>
</mxfile>
